<svg width="16" height="6" viewBox="0 0 16 6" fill="none" xmlns="http://www.w3.org/2000/svg">
<path d="M10 3C10 4.24375 8.99375 5.25 7.75 5.25C6.50625 5.25 5.5 4.24375 5.5 3C5.5 1.75625 6.50625 0.75 7.75 0.75C8.99375 0.75 10 1.75625 10 3ZM13.25 0.75C12.0063 0.75 11 1.75625 11 3C11 4.24375 12.0063 5.25 13.25 5.25C14.4937 5.25 15.5 4.24375 15.5 3C15.5 1.75625 14.4937 0.75 13.25 0.75ZM2.25 0.75C1.00625 0.75 0 1.75625 0 3C0 4.24375 1.00625 5.25 2.25 5.25C3.49375 5.25 4.5 4.24375 4.5 3C4.5 1.75625 3.49375 0.75 2.25 0.75Z" fill="white"/>
</svg>
