<svg width="9" height="12" viewBox="0 0 9 12" fill="none" xmlns="http://www.w3.org/2000/svg">
<path d="M6.16668 5.61719V6.20946C6.16668 6.34907 6.05307 6.46329 5.9142 6.46329H2.37949C2.24063 6.46329 2.12701 6.34907 2.12701 6.20946V5.61719C2.12701 5.47758 2.24063 5.36336 2.37949 5.36336H5.9142C6.05307 5.36336 6.16668 5.47758 6.16668 5.61719ZM5.9142 7.14018H2.37949C2.24063 7.14018 2.12701 7.2544 2.12701 7.39401V7.98628C2.12701 8.12589 2.24063 8.24011 2.37949 8.24011H5.9142C6.05307 8.24011 6.16668 8.12589 6.16668 7.98628V7.39401C6.16668 7.2544 6.05307 7.14018 5.9142 7.14018ZM8.18652 3.16137V10.1862C8.18652 10.7467 7.73416 11.2015 7.1766 11.2015H1.1171C0.559537 11.2015 0.107178 10.7467 0.107178 10.1862V1.38666C0.107178 0.826119 0.559537 0.371338 1.1171 0.371338H5.41135C5.67856 0.371338 5.93524 0.479216 6.1246 0.66959L7.88985 2.44429C8.07921 2.63255 8.18652 2.89273 8.18652 3.16137ZM5.4934 1.46916V3.07887H7.09454L5.4934 1.46916ZM7.1766 10.1862V4.0942H4.98845C4.70861 4.0942 4.48349 3.86787 4.48349 3.58654V1.38666H1.1171V10.1862H7.1766Z" fill="#4FA1C1"/>
</svg>
